<svg width="50" height="30" viewBox="0 0 50 30" fill="none" xmlns="http://www.w3.org/2000/svg">
<path d="M8.81935 4.60708C9.59903 4.60708 10.3468 4.41598 10.8981 4.07583C11.4494 3.73568 11.7591 3.27433 11.7591 2.79329C11.7591 2.31224 11.4494 1.85089 10.8981 1.51074C10.3468 1.17059 9.59903 0.979492 8.81935 0.979492H2.93978C2.16011 0.979492 1.41236 1.17059 0.861044 1.51074C0.309727 1.85089 0 2.31224 0 2.79329V28.1864C0 28.6675 0.309727 29.1288 0.861044 29.469C1.41236 29.8091 2.16011 30.0002 2.93978 30.0002H8.81935C9.59903 30.0002 10.3468 29.8091 10.8981 29.469C11.4494 29.1288 11.7591 28.6675 11.7591 28.1864C11.7591 27.7054 11.4494 27.244 10.8981 26.9039C10.3468 26.5637 9.59903 26.3726 8.81935 26.3726H5.87957V4.60708H8.81935ZM49.4472 14.4378L41.157 7.18267C40.7074 6.79164 40.0252 6.52633 39.2594 6.44476C38.4937 6.36319 37.7068 6.47198 37.0707 6.74736C36.7527 6.88482 36.4821 7.05977 36.2743 7.26212C36.0666 7.46447 35.9258 7.69021 35.8602 7.9263C35.7946 8.16239 35.8055 8.40415 35.8921 8.63764C35.9788 8.87113 36.1396 9.09172 36.3651 9.28667L41.4216 13.6761H17.6387C16.859 13.6761 16.1113 13.8671 15.56 14.2073C15.0087 14.5475 14.6989 15.0088 14.6989 15.4898C14.6989 15.9709 15.0087 16.4322 15.56 16.7724C16.1113 17.1125 16.859 17.3036 17.6387 17.3036H41.157L35.8654 21.6567C35.6337 21.8473 35.4652 22.0641 35.3694 22.2949C35.2736 22.5256 35.2524 22.7657 35.307 23.0015C35.3616 23.2373 35.4909 23.4642 35.6876 23.6691C35.8843 23.8741 36.1445 24.0531 36.4533 24.1961C36.9622 24.4315 37.5811 24.5588 38.2172 24.5588C38.6736 24.5588 39.1237 24.4933 39.5319 24.3673C39.9401 24.2414 40.2952 24.0586 40.569 23.8333L49.3884 16.5781C49.7649 16.2714 49.9735 15.8986 49.9841 15.5139C49.9946 15.1292 49.8066 14.7523 49.4472 14.4378Z" fill="#F1413E"/>
</svg>
