<svg width="20" height="20" viewBox="0 0 20 20" fill="none" xmlns="http://www.w3.org/2000/svg">
<path d="M4.00009 9.00025H6.00015C8.00022 9.00025 9.00025 8.00022 9.00025 6.00015V4.00009C9.00025 2.00003 8.00022 1 6.00015 1H4.00009C2.00003 1 1 2.00003 1 4.00009V6.00015C1 8.00022 2.00003 9.00025 4.00009 9.00025Z" stroke="#62C370" stroke-miterlimit="10" stroke-linecap="round" stroke-linejoin="round"/>
<path d="M14.0001 9.00025H16.0002C18.0002 9.00025 19.0002 8.00022 19.0002 6.00015V4.00009C19.0002 2.00003 18.0002 1 16.0002 1H14.0001C12 1 11 2.00003 11 4.00009V6.00015C11 8.00022 12 9.00025 14.0001 9.00025Z" stroke="#62C370" stroke-miterlimit="10" stroke-linecap="round" stroke-linejoin="round"/>
<path d="M14.0001 19.0002H16.0002C18.0002 19.0002 19.0002 18.0002 19.0002 16.0002V14.0001C19.0002 12 18.0002 11 16.0002 11H14.0001C12 11 11 12 11 14.0001V16.0002C11 18.0002 12 19.0002 14.0001 19.0002Z" stroke="#62C370" stroke-miterlimit="10" stroke-linecap="round" stroke-linejoin="round"/>
<path d="M4.00009 19.0002H6.00015C8.00022 19.0002 9.00025 18.0002 9.00025 16.0002V14.0001C9.00025 12 8.00022 11 6.00015 11H4.00009C2.00003 11 1 12 1 14.0001V16.0002C1 18.0002 2.00003 19.0002 4.00009 19.0002Z" stroke="#62C370" stroke-miterlimit="10" stroke-linecap="round" stroke-linejoin="round"/>
</svg>
