<svg width="20" height="19" viewBox="0 0 20 19" fill="none" xmlns="http://www.w3.org/2000/svg">
<path d="M4.00009 8.50025H6.00015C8.00022 8.50025 9.00025 7.50022 9.00025 5.50015V3.50009C9.00025 1.50003 8.00022 0.5 6.00015 0.5H4.00009C2.00003 0.5 1 1.50003 1 3.50009V5.50015C1 7.50022 2.00003 8.50025 4.00009 8.50025Z" stroke="#333333" stroke-miterlimit="10" stroke-linecap="round" stroke-linejoin="round"/>
<path d="M14.0001 8.50025H16.0002C18.0002 8.50025 19.0002 7.50022 19.0002 5.50015V3.50009C19.0002 1.50003 18.0002 0.5 16.0002 0.5H14.0001C12 0.5 11 1.50003 11 3.50009V5.50015C11 7.50022 12 8.50025 14.0001 8.50025Z" stroke="#333333" stroke-miterlimit="10" stroke-linecap="round" stroke-linejoin="round"/>
<path d="M14.0001 18.5002H16.0002C18.0002 18.5002 19.0002 17.5002 19.0002 15.5002V13.5001C19.0002 11.5 18.0002 10.5 16.0002 10.5H14.0001C12 10.5 11 11.5 11 13.5001V15.5002C11 17.5002 12 18.5002 14.0001 18.5002Z" stroke="#333333" stroke-miterlimit="10" stroke-linecap="round" stroke-linejoin="round"/>
<path d="M4.00009 18.5002H6.00015C8.00022 18.5002 9.00025 17.5002 9.00025 15.5002V13.5001C9.00025 11.5 8.00022 10.5 6.00015 10.5H4.00009C2.00003 10.5 1 11.5 1 13.5001V15.5002C1 17.5002 2.00003 18.5002 4.00009 18.5002Z" stroke="#333333" stroke-miterlimit="10" stroke-linecap="round" stroke-linejoin="round"/>
</svg>
